<?xml version="1.0" encoding="utf-8"?>
<svg width="361.33368px" height="312.745px" viewBox="0 0 361.33368 312.745" version="1.1" xmlns:xlink="http://www.w3.org/1999/xlink" xmlns="http://www.w3.org/2000/svg">
  <defs>
    <path d="M23.999 1.20117e-05L112.351 1.20117e-05Q112.94 1.20117e-05 113.529 0.0289199Q114.117 0.0578277 114.703 0.115574Q115.29 0.17332 115.873 0.259765Q116.455 0.34621 117.033 0.461146Q117.611 0.576082 118.182 0.719232Q118.754 0.862382 119.318 1.0334Q119.881 1.20442 120.436 1.4029Q120.991 1.60137 121.535 1.82683Q122.079 2.05228 122.612 2.30417Q123.145 2.55606 123.664 2.83378Q124.184 3.1115 124.689 3.41438Q125.194 3.71726 125.684 4.04457Q126.174 4.37188 126.647 4.72283Q127.121 5.07379 127.576 5.44753Q128.031 5.82128 128.468 6.21693Q128.904 6.61257 129.321 7.02916Q129.738 7.44574 130.133 7.88227Q130.529 8.31879 130.903 8.77421Q131.276 9.22962 131.627 9.70282Q131.978 10.176 132.306 10.6659Q132.633 11.1557 132.936 11.6611Q133.239 12.1664 133.516 12.686Q133.794 13.2055 134.046 13.7381Q134.298 14.2707 134.523 14.815Q134.749 15.3593 134.947 15.914Q135.146 16.4687 135.317 17.0325Q135.488 17.5962 135.631 18.1677Q135.774 18.7392 135.889 19.317Q136.004 19.8949 136.09 20.4776Q136.177 21.0604 136.235 21.6467Q136.292 22.233 136.321 22.8214Q136.35 23.4099 136.35 23.999L136.35 259.19Q136.35 259.779 136.321 260.367Q136.292 260.956 136.235 261.542Q136.177 262.128 136.09 262.711Q136.004 263.294 135.889 263.872Q135.774 264.45 135.631 265.021Q135.488 265.593 135.317 266.156Q135.146 266.72 134.947 267.275Q134.749 267.829 134.523 268.374Q134.298 268.918 134.046 269.451Q133.794 269.983 133.516 270.503Q133.239 271.022 132.936 271.528Q132.633 272.033 132.306 272.523Q131.978 273.013 131.627 273.486Q131.276 273.959 130.903 274.415Q130.529 274.87 130.133 275.306Q129.738 275.743 129.321 276.16Q128.904 276.576 128.468 276.972Q128.031 277.367 127.576 277.741Q127.121 278.115 126.647 278.466Q126.174 278.817 125.684 279.144Q125.194 279.471 124.689 279.774Q124.184 280.077 123.664 280.355Q123.145 280.633 122.612 280.885Q122.079 281.136 121.535 281.362Q120.991 281.587 120.436 281.786Q119.881 281.984 119.318 282.155Q118.754 282.326 118.182 282.47Q117.611 282.613 117.033 282.728Q116.455 282.843 115.873 282.929Q115.29 283.015 114.703 283.073Q114.117 283.131 113.529 283.16Q112.94 283.189 112.351 283.189L23.999 283.189Q23.4098 283.189 22.8214 283.16Q22.233 283.131 21.6467 283.073Q21.0604 283.015 20.4776 282.929Q19.8948 282.843 19.317 282.728Q18.7392 282.613 18.1677 282.47Q17.5962 282.326 17.0324 282.155Q16.4687 281.984 15.914 281.786Q15.3593 281.587 14.815 281.362Q14.2707 281.136 13.7381 280.885Q13.2055 280.633 12.6859 280.355Q12.1664 280.077 11.661 279.774Q11.1557 279.471 10.6659 279.144Q10.176 278.817 9.7028 278.466Q9.2296 278.115 8.77419 277.741Q8.31877 277.368 7.88225 276.972Q7.44572 276.576 7.02913 276.16Q6.61255 275.743 6.2169 275.307Q5.82126 274.87 5.44751 274.415Q5.07376 273.959 4.72281 273.486Q4.37186 273.013 4.04455 272.523Q3.71724 272.033 3.41436 271.528Q3.11148 271.022 2.83376 270.503Q2.55604 269.983 2.30415 269.451Q2.05226 268.918 1.82681 268.374Q1.60135 267.829 1.40287 267.275Q1.2044 266.72 1.03338 266.156Q0.862361 265.593 0.719211 265.021Q0.576061 264.45 0.461125 263.872Q0.346189 263.294 0.259744 262.711Q0.173299 262.128 0.115552 261.542Q0.0578064 260.956 0.0288986 260.367Q-9.25293e-06 259.779 -9.25293e-06 259.19L-9.25293e-06 23.999Q-9.25293e-06 23.4099 0.0288986 22.8214Q0.0578064 22.233 0.115552 21.6467Q0.173299 21.0604 0.259744 20.4776Q0.346189 19.8949 0.461125 19.317Q0.576061 18.7392 0.719211 18.1677Q0.86236 17.5962 1.03338 17.0325Q1.2044 16.4687 1.40287 15.914Q1.60135 15.3593 1.82681 14.815Q2.05226 14.2707 2.30415 13.7381Q2.55604 13.2055 2.83376 12.686Q3.11148 12.1664 3.41436 11.6611Q3.71724 11.1557 4.04455 10.6659Q4.37186 10.176 4.72281 9.70282Q5.07376 9.22962 5.44751 8.77421Q5.82126 8.31879 6.2169 7.88227Q6.61255 7.44574 7.02913 7.02916Q7.44572 6.61257 7.88225 6.21693Q8.31877 5.82128 8.77419 5.44753Q9.2296 5.07379 9.7028 4.72283Q10.176 4.37188 10.6659 4.04457Q11.1557 3.71726 11.661 3.41438Q12.1664 3.1115 12.6859 2.83378Q13.2055 2.55606 13.7381 2.30417Q14.2707 2.05228 14.815 1.82683Q15.3593 1.60137 15.914 1.4029Q16.4687 1.20442 17.0324 1.0334Q17.5962 0.862382 18.1677 0.719232Q18.7392 0.576082 19.317 0.461146Q19.8948 0.34621 20.4776 0.259765Q21.0604 0.17332 21.6467 0.115574Q22.233 0.0578277 22.8214 0.0289199Q23.4098 1.20117e-05 23.999 1.20117e-05L23.999 1.20117e-05Z" id="path_1" />
    <path d="M11.4767 31.5328L124.873 31.5328L124.873 243.773L11.4767 243.773L11.4767 31.5328Z" id="path_2" />
    <path d="M68.1741 254.082L68.1761 254.082Q68.4068 254.082 68.6372 254.093Q68.8677 254.104 69.0973 254.127Q69.3269 254.149 69.5551 254.183Q69.7833 254.217 70.0096 254.262Q70.2359 254.307 70.4597 254.363Q70.6835 254.419 70.9042 254.486Q71.125 254.553 71.3422 254.631Q71.5595 254.709 71.7726 254.797Q71.9858 254.885 72.1943 254.984Q72.4029 255.083 72.6064 255.191Q72.8098 255.3 73.0077 255.419Q73.2056 255.537 73.3974 255.665Q73.5893 255.794 73.7746 255.931Q73.9599 256.068 74.1382 256.215Q74.3166 256.361 74.4875 256.516Q74.6585 256.671 74.8216 256.834Q74.9847 256.997 75.1397 257.168Q75.2946 257.339 75.441 257.518Q75.5873 257.696 75.7248 257.881Q75.8622 258.067 75.9904 258.258Q76.1186 258.45 76.2372 258.648Q76.3558 258.846 76.4646 259.049Q76.5733 259.253 76.672 259.461Q76.7706 259.67 76.8589 259.883Q76.9472 260.096 77.0249 260.314Q77.1026 260.531 77.1696 260.752Q77.2366 260.972 77.2926 261.196Q77.3487 261.42 77.3937 261.646Q77.4387 261.873 77.4725 262.101Q77.5064 262.329 77.529 262.559Q77.5516 262.788 77.563 263.019Q77.5743 263.249 77.5743 263.48L77.5743 263.482Q77.5743 263.712 77.563 263.943Q77.5516 264.173 77.529 264.403Q77.5064 264.633 77.4726 264.861Q77.4387 265.089 77.3937 265.315Q77.3487 265.542 77.2926 265.765Q77.2366 265.989 77.1696 266.21Q77.1026 266.431 77.0249 266.648Q76.9472 266.865 76.8589 267.078Q76.7706 267.291 76.672 267.5Q76.5733 267.709 76.4646 267.912Q76.3558 268.116 76.2372 268.313Q76.1186 268.511 75.9904 268.703Q75.8622 268.895 75.7248 269.08Q75.5873 269.266 75.441 269.444Q75.2946 269.622 75.1397 269.793Q74.9847 269.964 74.8216 270.127Q74.6585 270.29 74.4875 270.445Q74.3166 270.6 74.1382 270.747Q73.9599 270.893 73.7746 271.03Q73.5893 271.168 73.3974 271.296Q73.2056 271.424 73.0077 271.543Q72.8098 271.661 72.6064 271.77Q72.4029 271.879 72.1943 271.978Q71.9858 272.076 71.7726 272.165Q71.5595 272.253 71.3422 272.331Q71.125 272.408 70.9042 272.475Q70.6835 272.542 70.4597 272.598Q70.2359 272.654 70.0096 272.699Q69.7833 272.744 69.5551 272.778Q69.3269 272.812 69.0973 272.835Q68.8677 272.857 68.6372 272.869Q68.4068 272.88 68.1761 272.88L68.1741 272.88Q67.9434 272.88 67.7129 272.869Q67.4825 272.857 67.2529 272.835Q67.0233 272.812 66.7951 272.778Q66.5668 272.744 66.3406 272.699Q66.1143 272.654 65.8905 272.598Q65.6667 272.542 65.4459 272.475Q65.2251 272.408 65.0079 272.331Q64.7907 272.253 64.5775 272.165Q64.3644 272.076 64.1558 271.978Q63.9473 271.879 63.7438 271.77Q63.5403 271.661 63.3424 271.543Q63.1445 271.424 62.9527 271.296Q62.7609 271.168 62.5756 271.03Q62.3903 270.893 62.2119 270.747Q62.0336 270.6 61.8626 270.445Q61.6917 270.29 61.5285 270.127Q61.3654 269.964 61.2105 269.793Q61.0555 269.622 60.9092 269.444Q60.7628 269.266 60.6254 269.08Q60.4879 268.895 60.3597 268.703Q60.2316 268.511 60.113 268.313Q59.9944 268.115 59.8856 267.912Q59.7768 267.709 59.6782 267.5Q59.5796 267.291 59.4913 267.078Q59.403 266.865 59.3252 266.648Q59.2475 266.431 59.1806 266.21Q59.1136 265.989 59.0575 265.765Q59.0015 265.542 58.9565 265.315Q58.9114 265.089 58.8776 264.861Q58.8437 264.633 58.8211 264.403Q58.7985 264.173 58.7872 263.943Q58.7759 263.712 58.7759 263.482L58.7759 263.48Q58.7759 263.249 58.7872 263.019Q58.7985 262.788 58.8211 262.559Q58.8437 262.329 58.8776 262.101Q58.9114 261.873 58.9565 261.646Q59.0015 261.42 59.0575 261.196Q59.1136 260.972 59.1806 260.752Q59.2475 260.531 59.3252 260.314Q59.403 260.096 59.4913 259.883Q59.5796 259.67 59.6782 259.461Q59.7768 259.253 59.8856 259.049Q59.9944 258.846 60.113 258.648Q60.2316 258.45 60.3597 258.258Q60.4879 258.067 60.6254 257.881Q60.7628 257.696 60.9092 257.518Q61.0555 257.339 61.2105 257.168Q61.3654 256.997 61.5285 256.834Q61.6917 256.671 61.8626 256.516Q62.0336 256.361 62.2119 256.215Q62.3903 256.069 62.5756 255.931Q62.7609 255.794 62.9527 255.665Q63.1445 255.537 63.3424 255.419Q63.5403 255.3 63.7438 255.191Q63.9473 255.083 64.1558 254.984Q64.3644 254.885 64.5775 254.797Q64.7907 254.709 65.0079 254.631Q65.2251 254.553 65.4459 254.486Q65.6667 254.419 65.8905 254.363Q66.1143 254.307 66.3406 254.262Q66.5668 254.217 66.7951 254.183Q67.0233 254.149 67.2529 254.127Q67.4825 254.104 67.7129 254.093Q67.9434 254.082 68.1741 254.082Z" id="path_3" />
    <path d="M23.999 0L112.351 0Q112.94 0 113.529 0.0289078Q114.117 0.0578157 114.703 0.115562Q115.29 0.173308 115.873 0.259753Q116.455 0.346198 117.033 0.461134Q117.611 0.57607 118.182 0.71922Q118.754 0.86237 119.318 1.03339Q119.882 1.20441 120.436 1.40288Q120.991 1.60136 121.535 1.82681Q122.079 2.05227 122.612 2.30416Q123.145 2.55605 123.664 2.83377Q124.184 3.11149 124.689 3.41437Q125.194 3.71725 125.684 4.04456Q126.174 4.37187 126.647 4.72282Q127.121 5.07377 127.576 5.44752Q128.031 5.82127 128.468 6.21691Q128.904 6.61256 129.321 7.02914Q129.738 7.44573 130.133 7.88226Q130.529 8.31878 130.903 8.77419Q131.276 9.22961 131.627 9.70281Q131.978 10.176 132.306 10.6659Q132.633 11.1557 132.936 11.661Q133.239 12.1664 133.516 12.6859Q133.794 13.2055 134.046 13.7381Q134.298 14.2707 134.523 14.815Q134.749 15.3593 134.947 15.914Q135.146 16.4687 135.317 17.0325Q135.488 17.5962 135.631 18.1677Q135.774 18.7392 135.889 19.317Q136.004 19.8948 136.09 20.4776Q136.177 21.0604 136.235 21.6467Q136.292 22.233 136.321 22.8214Q136.35 23.4099 136.35 23.999L136.35 259.19Q136.35 259.779 136.321 260.367Q136.292 260.956 136.235 261.542Q136.177 262.128 136.09 262.711Q136.004 263.294 135.889 263.872Q135.774 264.45 135.631 265.021Q135.488 265.593 135.317 266.156Q135.146 266.72 134.947 267.275Q134.749 267.829 134.523 268.374Q134.298 268.918 134.046 269.451Q133.794 269.983 133.516 270.503Q133.239 271.022 132.936 271.528Q132.633 272.033 132.306 272.523Q131.978 273.013 131.627 273.486Q131.276 273.959 130.903 274.415Q130.529 274.87 130.133 275.306Q129.738 275.743 129.321 276.16Q128.904 276.576 128.468 276.972Q128.031 277.367 127.576 277.741Q127.121 278.115 126.647 278.466Q126.174 278.817 125.684 279.144Q125.194 279.471 124.689 279.774Q124.184 280.077 123.664 280.355Q123.145 280.633 122.612 280.885Q122.079 281.136 121.535 281.362Q120.991 281.587 120.436 281.786Q119.882 281.984 119.318 282.155Q118.754 282.326 118.182 282.47Q117.611 282.613 117.033 282.728Q116.455 282.843 115.873 282.929Q115.29 283.015 114.703 283.073Q114.117 283.131 113.529 283.16Q112.94 283.189 112.351 283.189L23.999 283.189Q23.4099 283.189 22.8214 283.16Q22.233 283.131 21.6467 283.073Q21.0604 283.015 20.4776 282.929Q19.8948 282.843 19.317 282.728Q18.7392 282.613 18.1677 282.47Q17.5962 282.326 17.0325 282.155Q16.4687 281.984 15.914 281.786Q15.3593 281.587 14.815 281.362Q14.2707 281.136 13.7381 280.885Q13.2055 280.633 12.6859 280.355Q12.1664 280.077 11.661 279.774Q11.1557 279.471 10.6659 279.144Q10.176 278.817 9.70281 278.466Q9.22961 278.115 8.77419 277.741Q8.31878 277.368 7.88226 276.972Q7.44573 276.576 7.02914 276.16Q6.61256 275.743 6.21691 275.307Q5.82127 274.87 5.44752 274.415Q5.07377 273.959 4.72282 273.486Q4.37187 273.013 4.04456 272.523Q3.71725 272.033 3.41437 271.528Q3.11149 271.022 2.83377 270.503Q2.55605 269.983 2.30416 269.451Q2.05227 268.918 1.82681 268.374Q1.60136 267.829 1.40288 267.275Q1.20441 266.72 1.03339 266.156Q0.86237 265.593 0.71922 265.021Q0.57607 264.45 0.461134 263.872Q0.346198 263.294 0.259753 262.711Q0.173308 262.128 0.115562 261.542Q0.0578157 260.956 0.0289078 260.367Q0 259.779 0 259.19L0 23.999Q0 23.4099 0.0289078 22.8214Q0.0578157 22.233 0.115562 21.6467Q0.173308 21.0604 0.259753 20.4776Q0.346198 19.8948 0.461134 19.317Q0.57607 18.7392 0.71922 18.1677Q0.86237 17.5962 1.03339 17.0325Q1.20441 16.4687 1.40288 15.914Q1.60136 15.3593 1.82681 14.815Q2.05227 14.2707 2.30416 13.7381Q2.55605 13.2055 2.83377 12.6859Q3.11149 12.1664 3.41437 11.661Q3.71725 11.1557 4.04456 10.6659Q4.37187 10.176 4.72282 9.70281Q5.07377 9.22961 5.44752 8.77419Q5.82127 8.31878 6.21691 7.88226Q6.61256 7.44573 7.02914 7.02914Q7.44573 6.61256 7.88226 6.21691Q8.31878 5.82127 8.77419 5.44752Q9.22961 5.07377 9.70281 4.72282Q10.176 4.37187 10.6659 4.04456Q11.1557 3.71725 11.661 3.41437Q12.1664 3.11149 12.6859 2.83377Q13.2055 2.55605 13.7381 2.30416Q14.2707 2.05227 14.815 1.82681Q15.3593 1.60136 15.914 1.40288Q16.4687 1.20441 17.0325 1.03339Q17.5962 0.86237 18.1677 0.71922Q18.7392 0.57607 19.317 0.461134Q19.8948 0.346198 20.4776 0.259753Q21.0604 0.173308 21.6467 0.115562Q22.233 0.0578157 22.8214 0.0289078Q23.4099 0 23.999 0Z" id="path_4" />
    <path d="M68.1741 254.082L68.1761 254.082Q68.4068 254.082 68.6372 254.093Q68.8677 254.104 69.0973 254.127Q69.3269 254.149 69.5551 254.183Q69.7833 254.217 70.0096 254.262Q70.2358 254.307 70.4596 254.363Q70.6834 254.419 70.9042 254.486Q71.125 254.553 71.3422 254.631Q71.5595 254.709 71.7726 254.797Q71.9857 254.885 72.1943 254.984Q72.4029 255.083 72.6063 255.191Q72.8098 255.3 73.0077 255.419Q73.2056 255.537 73.3974 255.665Q73.5893 255.794 73.7746 255.931Q73.9599 256.068 74.1382 256.215Q74.3166 256.361 74.4875 256.516Q74.6585 256.671 74.8216 256.834Q74.9847 256.997 75.1397 257.168Q75.2946 257.339 75.441 257.518Q75.5873 257.696 75.7248 257.881Q75.8622 258.067 75.9904 258.258Q76.1186 258.45 76.2372 258.648Q76.3558 258.846 76.4645 259.049Q76.5733 259.253 76.6719 259.461Q76.7706 259.67 76.8589 259.883Q76.9472 260.096 77.0249 260.314Q77.1026 260.531 77.1696 260.752Q77.2366 260.972 77.2926 261.196Q77.3487 261.42 77.3937 261.646Q77.4387 261.873 77.4725 262.101Q77.5064 262.329 77.529 262.559Q77.5516 262.788 77.563 263.019Q77.5743 263.249 77.5743 263.48L77.5743 263.482Q77.5743 263.712 77.563 263.943Q77.5516 264.173 77.529 264.403Q77.5064 264.633 77.4726 264.861Q77.4387 265.089 77.3937 265.315Q77.3487 265.542 77.2926 265.765Q77.2366 265.989 77.1696 266.21Q77.1026 266.431 77.0249 266.648Q76.9472 266.865 76.8589 267.078Q76.7706 267.291 76.672 267.5Q76.5733 267.709 76.4646 267.912Q76.3558 268.116 76.2372 268.313Q76.1186 268.511 75.9904 268.703Q75.8622 268.895 75.7248 269.08Q75.5873 269.266 75.441 269.444Q75.2946 269.622 75.1397 269.793Q74.9847 269.964 74.8216 270.127Q74.6585 270.29 74.4875 270.445Q74.3166 270.6 74.1382 270.747Q73.9599 270.893 73.7746 271.03Q73.5893 271.168 73.3974 271.296Q73.2056 271.424 73.0077 271.543Q72.8098 271.661 72.6064 271.77Q72.4029 271.879 72.1943 271.978Q71.9857 272.076 71.7726 272.165Q71.5595 272.253 71.3422 272.331Q71.125 272.408 70.9042 272.475Q70.6835 272.542 70.4597 272.598Q70.2359 272.654 70.0096 272.699Q69.7833 272.744 69.5551 272.778Q69.3269 272.812 69.0973 272.835Q68.8677 272.857 68.6372 272.869Q68.4068 272.88 68.1761 272.88L68.1741 272.88Q67.9434 272.88 67.7129 272.869Q67.4825 272.857 67.2529 272.835Q67.0233 272.812 66.7951 272.778Q66.5669 272.744 66.3406 272.699Q66.1143 272.654 65.8905 272.598Q65.6667 272.542 65.4459 272.475Q65.2252 272.408 65.0079 272.331Q64.7907 272.253 64.5775 272.165Q64.3644 272.076 64.1558 271.978Q63.9473 271.879 63.7438 271.77Q63.5403 271.661 63.3424 271.543Q63.1445 271.424 62.9527 271.296Q62.7609 271.168 62.5756 271.03Q62.3903 270.893 62.2119 270.747Q62.0336 270.6 61.8626 270.445Q61.6917 270.29 61.5285 270.127Q61.3654 269.964 61.2105 269.793Q61.0555 269.622 60.9092 269.444Q60.7628 269.266 60.6254 269.08Q60.4879 268.895 60.3597 268.703Q60.2316 268.511 60.113 268.313Q59.9944 268.115 59.8856 267.912Q59.7768 267.709 59.6782 267.5Q59.5796 267.291 59.4913 267.078Q59.403 266.865 59.3253 266.648Q59.2475 266.431 59.1806 266.21Q59.1136 265.989 59.0575 265.765Q59.0015 265.542 58.9565 265.315Q58.9114 265.089 58.8776 264.861Q58.8437 264.633 58.8211 264.403Q58.7985 264.173 58.7872 263.943Q58.7759 263.712 58.7759 263.482L58.7759 263.48Q58.7759 263.249 58.7872 263.019Q58.7985 262.788 58.8211 262.559Q58.8437 262.329 58.8776 262.101Q58.9114 261.873 58.9565 261.646Q59.0015 261.42 59.0575 261.196Q59.1136 260.972 59.1806 260.752Q59.2475 260.531 59.3253 260.314Q59.403 260.096 59.4913 259.883Q59.5796 259.67 59.6782 259.461Q59.7768 259.253 59.8856 259.049Q59.9944 258.846 60.113 258.648Q60.2316 258.45 60.3597 258.258Q60.4879 258.067 60.6254 257.881Q60.7628 257.696 60.9092 257.518Q61.0555 257.339 61.2105 257.168Q61.3654 256.997 61.5285 256.834Q61.6917 256.671 61.8626 256.516Q62.0336 256.361 62.2119 256.215Q62.3903 256.068 62.5756 255.931Q62.7609 255.794 62.9527 255.665Q63.1445 255.537 63.3424 255.419Q63.5403 255.3 63.7438 255.191Q63.9473 255.083 64.1558 254.984Q64.3644 254.885 64.5775 254.797Q64.7907 254.709 65.0079 254.631Q65.2251 254.553 65.4459 254.486Q65.6667 254.419 65.8905 254.363Q66.1143 254.307 66.3406 254.262Q66.5669 254.217 66.7951 254.183Q67.0233 254.149 67.2529 254.127Q67.4825 254.104 67.7129 254.093Q67.9434 254.082 68.1741 254.082Z" id="path_5" />
    <path d="M23.999 0L112.349 0Q112.938 0 113.527 0.0289078Q114.115 0.0578157 114.701 0.115562Q115.288 0.173308 115.871 0.259753Q116.453 0.346198 117.031 0.461134Q117.609 0.57607 118.18 0.71922Q118.752 0.86237 119.316 1.03339Q119.879 1.20441 120.434 1.40288Q120.989 1.60136 121.533 1.82681Q122.077 2.05227 122.61 2.30416Q123.143 2.55605 123.662 2.83377Q124.182 3.11149 124.687 3.41437Q125.192 3.71725 125.682 4.04456Q126.172 4.37187 126.645 4.72282Q127.119 5.07377 127.574 5.44752Q128.029 5.82127 128.466 6.21691Q128.902 6.61256 129.319 7.02914Q129.736 7.44573 130.131 7.88226Q130.527 8.31878 130.901 8.77419Q131.274 9.22961 131.625 9.70281Q131.976 10.176 132.304 10.6659Q132.631 11.1557 132.934 11.661Q133.237 12.1664 133.514 12.6859Q133.792 13.2055 134.044 13.7381Q134.296 14.2707 134.521 14.815Q134.747 15.3593 134.945 15.914Q135.144 16.4687 135.315 17.0325Q135.486 17.5962 135.629 18.1677Q135.772 18.7392 135.887 19.317Q136.002 19.8948 136.088 20.4776Q136.175 21.0604 136.233 21.6467Q136.29 22.233 136.319 22.8214Q136.348 23.4099 136.348 23.999L136.348 259.186Q136.348 259.775 136.319 260.363Q136.29 260.952 136.233 261.538Q136.175 262.124 136.088 262.707Q136.002 263.29 135.887 263.868Q135.772 264.445 135.629 265.017Q135.486 265.588 135.315 266.152Q135.144 266.716 134.945 267.271Q134.747 267.825 134.521 268.37Q134.296 268.914 134.044 269.447Q133.792 269.979 133.514 270.499Q133.237 271.018 132.934 271.524Q132.631 272.029 132.304 272.519Q131.976 273.009 131.625 273.482Q131.274 273.955 130.901 274.41Q130.527 274.866 130.131 275.302Q129.736 275.739 129.319 276.155Q128.902 276.572 128.466 276.968Q128.029 277.363 127.574 277.737Q127.119 278.111 126.645 278.462Q126.172 278.813 125.682 279.14Q125.192 279.467 124.687 279.77Q124.182 280.073 123.662 280.351Q123.143 280.629 122.61 280.88Q122.077 281.132 121.533 281.358Q120.989 281.583 120.434 281.782Q119.879 281.98 119.316 282.151Q118.752 282.322 118.18 282.465Q117.609 282.609 117.031 282.723Q116.453 282.838 115.871 282.925Q115.288 283.011 114.701 283.069Q114.115 283.127 113.527 283.156Q112.938 283.185 112.349 283.185L23.999 283.185Q23.4099 283.185 22.8214 283.156Q22.233 283.127 21.6467 283.069Q21.0604 283.011 20.4776 282.925Q19.8948 282.838 19.317 282.723Q18.7392 282.609 18.1677 282.465Q17.5962 282.322 17.0325 282.151Q16.4687 281.98 15.914 281.782Q15.3593 281.583 14.815 281.358Q14.2707 281.132 13.7381 280.88Q13.2055 280.629 12.6859 280.351Q12.1664 280.073 11.661 279.77Q11.1557 279.467 10.6659 279.14Q10.176 278.813 9.70281 278.462Q9.22961 278.111 8.77419 277.737Q8.31878 277.363 7.88226 276.968Q7.44573 276.572 7.02914 276.155Q6.61256 275.739 6.21691 275.302Q5.82127 274.866 5.44752 274.41Q5.07377 273.955 4.72282 273.482Q4.37187 273.009 4.04456 272.519Q3.71725 272.029 3.41437 271.524Q3.11149 271.018 2.83377 270.499Q2.55605 269.979 2.30416 269.447Q2.05227 268.914 1.82681 268.37Q1.60136 267.825 1.40288 267.271Q1.20441 266.716 1.03339 266.152Q0.86237 265.588 0.71922 265.017Q0.57607 264.445 0.461134 263.868Q0.346198 263.29 0.259753 262.707Q0.173308 262.124 0.115562 261.538Q0.0578157 260.952 0.0289078 260.363Q0 259.775 0 259.186L0 23.999Q0 23.4099 0.0289078 22.8214Q0.0578157 22.233 0.115562 21.6467Q0.173308 21.0604 0.259753 20.4776Q0.346198 19.8948 0.461134 19.317Q0.57607 18.7392 0.71922 18.1677Q0.86237 17.5962 1.03339 17.0325Q1.20441 16.4687 1.40288 15.914Q1.60136 15.3593 1.82681 14.815Q2.05227 14.2707 2.30416 13.7381Q2.55605 13.2055 2.83377 12.6859Q3.11149 12.1664 3.41437 11.661Q3.71725 11.1557 4.04456 10.6659Q4.37187 10.176 4.72282 9.70281Q5.07377 9.22961 5.44752 8.77419Q5.82127 8.31878 6.21691 7.88226Q6.61256 7.44573 7.02914 7.02914Q7.44573 6.61256 7.88226 6.21691Q8.31878 5.82127 8.77419 5.44752Q9.22961 5.07377 9.70281 4.72282Q10.176 4.37187 10.6659 4.04456Q11.1557 3.71725 11.661 3.41437Q12.1664 3.11149 12.6859 2.83377Q13.2055 2.55605 13.7381 2.30416Q14.2707 2.05227 14.815 1.82681Q15.3593 1.60136 15.914 1.40288Q16.4687 1.20441 17.0325 1.03339Q17.5962 0.86237 18.1677 0.71922Q18.7392 0.57607 19.317 0.461134Q19.8948 0.346198 20.4776 0.259753Q21.0604 0.173308 21.6467 0.115562Q22.233 0.0578157 22.8214 0.0289078Q23.4099 0 23.999 0Z" id="path_6" />
    <path d="M11.4765 31.5323L124.872 31.5323L124.872 243.769L11.4765 243.769L11.4765 31.5323Z" id="path_7" />
    <path d="M68.1731 254.078L68.1751 254.078Q68.4058 254.078 68.6362 254.089Q68.8666 254.101 69.0962 254.123Q69.3258 254.146 69.554 254.18Q69.7822 254.213 70.0085 254.258Q70.2348 254.303 70.4586 254.36Q70.6824 254.416 70.9032 254.483Q71.1239 254.55 71.3412 254.627Q71.5584 254.705 71.7715 254.793Q71.9847 254.882 72.1932 254.98Q72.4018 255.079 72.6053 255.188Q72.8087 255.296 73.0066 255.415Q73.2045 255.534 73.3963 255.662Q73.5882 255.79 73.7735 255.927Q73.9588 256.065 74.1371 256.211Q74.3155 256.357 74.4864 256.512Q74.6574 256.667 74.8205 256.83Q74.9836 256.994 75.1386 257.165Q75.2935 257.336 75.4399 257.514Q75.5862 257.692 75.7236 257.878Q75.8611 258.063 75.9893 258.255Q76.1174 258.446 76.236 258.644Q76.3546 258.842 76.4634 259.046Q76.5722 259.249 76.6708 259.458Q76.7694 259.666 76.8577 259.879Q76.946 260.093 77.0237 260.31Q77.1015 260.527 77.1684 260.748Q77.2354 260.969 77.2915 261.192Q77.3475 261.416 77.3925 261.642Q77.4376 261.869 77.4714 262.097Q77.5053 262.325 77.5279 262.555Q77.5505 262.784 77.5618 263.015Q77.5731 263.245 77.5731 263.476L77.5731 263.478Q77.5731 263.709 77.5618 263.939Q77.5505 264.17 77.5279 264.399Q77.5053 264.629 77.4714 264.857Q77.4376 265.085 77.3925 265.311Q77.3475 265.538 77.2915 265.761Q77.2354 265.985 77.1684 266.206Q77.1015 266.427 77.0237 266.644Q76.946 266.861 76.8577 267.074Q76.7694 267.288 76.6708 267.496Q76.5722 267.705 76.4634 267.908Q76.3546 268.112 76.236 268.309Q76.1174 268.507 75.9893 268.699Q75.8611 268.891 75.7236 269.076Q75.5862 269.262 75.4399 269.44Q75.2935 269.618 75.1386 269.789Q74.9836 269.96 74.8205 270.123Q74.6574 270.286 74.4864 270.441Q74.3155 270.596 74.1371 270.743Q73.9588 270.889 73.7735 271.026Q73.5882 271.164 73.3963 271.292Q73.2045 271.42 73.0066 271.539Q72.8087 271.657 72.6053 271.766Q72.4018 271.875 72.1932 271.974Q71.9847 272.072 71.7715 272.161Q71.5584 272.249 71.3412 272.327Q71.1239 272.404 70.9032 272.471Q70.6824 272.538 70.4586 272.594Q70.2348 272.65 70.0085 272.695Q69.7822 272.74 69.554 272.774Q69.3258 272.808 69.0962 272.831Q68.8666 272.853 68.6362 272.865Q68.4058 272.876 68.1751 272.876L68.1731 272.876Q67.9423 272.876 67.7119 272.865Q67.4815 272.853 67.2519 272.831Q67.0223 272.808 66.7941 272.774Q66.5659 272.74 66.3396 272.695Q66.1133 272.65 65.8895 272.594Q65.6657 272.538 65.4449 272.471Q65.2242 272.404 65.0069 272.327Q64.7897 272.249 64.5766 272.161Q64.3634 272.072 64.1549 271.974Q63.9463 271.875 63.7428 271.766Q63.5394 271.657 63.3415 271.539Q63.1436 271.42 62.9518 271.292Q62.7599 271.164 62.5746 271.026Q62.3893 270.889 62.211 270.743Q62.0326 270.596 61.8617 270.441Q61.6908 270.286 61.5276 270.123Q61.3645 269.96 61.2096 269.789Q61.0546 269.618 60.9083 269.44Q60.7619 269.262 60.6245 269.076Q60.487 268.891 60.3588 268.699Q60.2307 268.507 60.1121 268.309Q59.9935 268.112 59.8847 267.908Q59.776 267.705 59.6773 267.496Q59.5787 267.288 59.4904 267.074Q59.4021 266.861 59.3244 266.644Q59.2466 266.427 59.1797 266.206Q59.1127 265.985 59.0566 265.761Q59.0006 265.538 58.9556 265.311Q58.9106 265.085 58.8767 264.857Q58.8429 264.629 58.8203 264.399Q58.7976 264.17 58.7863 263.939Q58.775 263.709 58.775 263.478L58.775 263.476Q58.775 263.245 58.7863 263.015Q58.7976 262.784 58.8203 262.555Q58.8429 262.325 58.8767 262.097Q58.9106 261.869 58.9556 261.642Q59.0006 261.416 59.0566 261.192Q59.1127 260.969 59.1797 260.748Q59.2466 260.527 59.3244 260.31Q59.4021 260.093 59.4904 259.879Q59.5787 259.666 59.6773 259.458Q59.776 259.249 59.8847 259.046Q59.9935 258.842 60.1121 258.644Q60.2307 258.446 60.3588 258.255Q60.487 258.063 60.6245 257.877Q60.7619 257.692 60.9083 257.514Q61.0546 257.336 61.2095 257.165Q61.3645 256.994 61.5276 256.83Q61.6908 256.667 61.8617 256.512Q62.0326 256.357 62.211 256.211Q62.3893 256.065 62.5746 255.927Q62.7599 255.79 62.9518 255.662Q63.1436 255.534 63.3415 255.415Q63.5394 255.296 63.7428 255.188Q63.9463 255.079 64.1549 254.98Q64.3634 254.882 64.5766 254.793Q64.7897 254.705 65.0069 254.627Q65.2242 254.55 65.4449 254.483Q65.6657 254.416 65.8895 254.36Q66.1133 254.303 66.3396 254.258Q66.5659 254.213 66.7941 254.18Q67.0223 254.146 67.2519 254.123Q67.4815 254.101 67.7119 254.089Q67.9423 254.078 68.1731 254.078Z" id="path_8" />
    <clipPath id="clip_1">
      <use xlink:href="#path_1" />
    </clipPath>
    <clipPath id="clip_2">
      <use xlink:href="#path_2" />
    </clipPath>
    <clipPath id="clip_3">
      <use xlink:href="#path_3" />
    </clipPath>
    <clipPath id="clip_4">
      <use xlink:href="#path_4" />
    </clipPath>
    <clipPath id="clip_5">
      <use xlink:href="#path_5" />
    </clipPath>
    <clipPath id="clip_6">
      <use xlink:href="#path_6" />
    </clipPath>
    <clipPath id="clip_7">
      <use xlink:href="#path_7" />
    </clipPath>
    <clipPath id="clip_8">
      <use xlink:href="#path_8" />
    </clipPath>
  </defs>
  <g id="Group">
    <g id="iPhone-Copy" transform="matrix(0.9396926 -0.34202012 0.34202012 0.9396926 0 46.634506)">
      <g id="Rectangle-2">
        <use stroke="none" fill="#FFFFFF" xlink:href="#path_1" fill-rule="evenodd" />
        <g clip-path="url(#clip_1)">
          <use xlink:href="#path_1" fill="none" stroke="#EEEEEE" stroke-width="10" />
        </g>
      </g>
      <g id="Rectangle-3">
        <use stroke="none" fill="#FFFFFF" xlink:href="#path_2" fill-rule="evenodd" />
        <g clip-path="url(#clip_2)">
          <use xlink:href="#path_2" fill="none" stroke="#DCDCDC" stroke-width="2" />
        </g>
      </g>
      <g id="Rectangle-5">
        <use stroke="none" fill="#FFFFFF" xlink:href="#path_3" fill-rule="evenodd" />
        <g clip-path="url(#clip_3)">
          <use xlink:href="#path_3" fill="none" stroke="#DCDCDC" stroke-width="4" />
        </g>
      </g>
      <path d="M58.7973 19.4048L91.5449 19.4048Q91.6641 19.4048 91.7826 19.4165Q91.9011 19.4282 92.018 19.4514Q92.1348 19.4746 92.2488 19.5092Q92.3628 19.5438 92.4728 19.5894Q92.5828 19.635 92.6879 19.6911Q92.7929 19.7473 92.892 19.8134Q92.991 19.8796 93.0831 19.9552Q93.1752 20.0307 93.2594 20.115Q93.3436 20.1992 93.4192 20.2913Q93.4948 20.3833 93.5609 20.4824Q93.6271 20.5814 93.6833 20.6865Q93.7394 20.7915 93.785 20.9016Q93.8306 21.0116 93.8651 21.1256Q93.8997 21.2396 93.923 21.3564Q93.9462 21.4732 93.9579 21.5918Q93.9695 21.7103 93.9695 21.8294L93.9695 21.8314Q93.9695 21.9505 93.9579 22.0691Q93.9462 22.1876 93.923 22.3044Q93.8997 22.4212 93.8651 22.5352Q93.8306 22.6492 93.785 22.7593Q93.7394 22.8693 93.6833 22.9744Q93.6271 23.0794 93.5609 23.1784Q93.4948 23.2775 93.4192 23.3696Q93.3436 23.4616 93.2594 23.5459Q93.1752 23.6301 93.0831 23.7056Q92.991 23.7812 92.892 23.8474Q92.7929 23.9136 92.6879 23.9697Q92.5828 24.0259 92.4728 24.0714Q92.3628 24.117 92.2488 24.1516Q92.1348 24.1862 92.018 24.2094Q91.9011 24.2327 91.7826 24.2443Q91.6641 24.256 91.5449 24.256L58.7973 24.256Q58.6782 24.256 58.5597 24.2443Q58.4411 24.2327 58.3243 24.2094Q58.2075 24.1862 58.0935 24.1516Q57.9795 24.117 57.8695 24.0714Q57.7594 24.0259 57.6544 23.9697Q57.5493 23.9136 57.4503 23.8474Q57.3513 23.7812 57.2592 23.7056Q57.1671 23.6301 57.0829 23.5459Q56.9987 23.4616 56.9231 23.3696Q56.8475 23.2775 56.7814 23.1784Q56.7152 23.0794 56.659 22.9744Q56.6029 22.8693 56.5573 22.7593Q56.5117 22.6492 56.4771 22.5352Q56.4426 22.4212 56.4193 22.3044Q56.3961 22.1876 56.3844 22.0691Q56.3727 21.9505 56.3727 21.8314L56.3727 21.8294Q56.3727 21.7103 56.3844 21.5918Q56.3961 21.4732 56.4193 21.3564Q56.4426 21.2396 56.4771 21.1256Q56.5117 21.0116 56.5573 20.9016Q56.6029 20.7915 56.659 20.6865Q56.7152 20.5814 56.7813 20.4824Q56.8475 20.3833 56.9231 20.2913Q56.9987 20.1992 57.0829 20.115Q57.1671 20.0307 57.2592 19.9552Q57.3513 19.8796 57.4503 19.8134Q57.5493 19.7473 57.6544 19.6911Q57.7594 19.635 57.8695 19.5894Q57.9795 19.5438 58.0935 19.5092Q58.2075 19.4746 58.3243 19.4514Q58.4411 19.4282 58.5597 19.4165Q58.6782 19.4048 58.7973 19.4048Z" id="Rectangle-7" fill="#D3D3D3" fill-rule="evenodd" stroke="none" />
      <path d="M46.6244 17.5856L46.6264 17.5856Q46.7306 17.5856 46.8346 17.5907Q46.9387 17.5958 47.0424 17.606Q47.146 17.6163 47.2491 17.6315Q47.3522 17.6468 47.4543 17.6672Q47.5565 17.6875 47.6576 17.7128Q47.7586 17.7381 47.8583 17.7683Q47.958 17.7986 48.0561 17.8337Q48.1542 17.8688 48.2504 17.9086Q48.3467 17.9485 48.4409 17.9931Q48.535 18.0376 48.6269 18.0867Q48.7188 18.1358 48.8082 18.1894Q48.8975 18.2429 48.9841 18.3008Q49.0708 18.3587 49.1544 18.4208Q49.2381 18.4828 49.3186 18.5489Q49.3992 18.615 49.4764 18.685Q49.5536 18.7549 49.6272 18.8286Q49.7009 18.9023 49.7709 18.9794Q49.8408 19.0566 49.9069 19.1372Q49.973 19.2177 50.0351 19.3014Q50.0971 19.3851 50.155 19.4717Q50.2129 19.5583 50.2664 19.6477Q50.32 19.737 50.3691 19.8289Q50.4182 19.9208 50.4628 20.015Q50.5073 20.1091 50.5472 20.2054Q50.587 20.3016 50.6221 20.3997Q50.6572 20.4978 50.6875 20.5975Q50.7177 20.6972 50.743 20.7983Q50.7683 20.8993 50.7887 21.0015Q50.809 21.1037 50.8243 21.2067Q50.8396 21.3098 50.8498 21.4134Q50.86 21.5171 50.8651 21.6212Q50.8702 21.7252 50.8702 21.8294L50.8702 21.8314Q50.8702 21.9356 50.8651 22.0396Q50.86 22.1437 50.8498 22.2474Q50.8396 22.3511 50.8243 22.4541Q50.809 22.5572 50.7887 22.6593Q50.7683 22.7615 50.743 22.8626Q50.7177 22.9636 50.6875 23.0633Q50.6572 23.163 50.6221 23.2611Q50.587 23.3592 50.5472 23.4554Q50.5073 23.5517 50.4628 23.6459Q50.4182 23.74 50.3691 23.8319Q50.32 23.9238 50.2664 24.0132Q50.2129 24.1025 50.155 24.1891Q50.0971 24.2758 50.0351 24.3594Q49.973 24.4431 49.9069 24.5236Q49.8408 24.6042 49.7709 24.6814Q49.7009 24.7586 49.6272 24.8322Q49.5536 24.9059 49.4764 24.9759Q49.3992 25.0458 49.3186 25.1119Q49.2381 25.178 49.1544 25.2401Q49.0708 25.3021 48.9841 25.36Q48.8975 25.4179 48.8082 25.4714Q48.7188 25.525 48.6269 25.5741Q48.535 25.6232 48.4409 25.6678Q48.3467 25.7123 48.2504 25.7522Q48.1542 25.792 48.0561 25.8271Q47.958 25.8622 47.8583 25.8925Q47.7586 25.9227 47.6576 25.948Q47.5565 25.9733 47.4543 25.9937Q47.3521 26.014 47.2491 26.0293Q47.146 26.0446 47.0424 26.0548Q46.9387 26.065 46.8346 26.0701Q46.7306 26.0752 46.6264 26.0752L46.6244 26.0752Q46.5202 26.0752 46.4162 26.0701Q46.3121 26.065 46.2084 26.0548Q46.1048 26.0446 46.0017 26.0293Q45.8987 26.014 45.7965 25.9937Q45.6943 25.9733 45.5932 25.948Q45.4922 25.9227 45.3925 25.8925Q45.2928 25.8622 45.1947 25.8271Q45.0966 25.792 45.0004 25.7522Q44.9041 25.7123 44.8099 25.6678Q44.7158 25.6232 44.6239 25.5741Q44.532 25.525 44.4427 25.4714Q44.3533 25.4179 44.2667 25.36Q44.1801 25.3021 44.0964 25.2401Q44.0127 25.178 43.9322 25.1119Q43.8516 25.0458 43.7744 24.9759Q43.6973 24.9059 43.6236 24.8322Q43.5499 24.7586 43.48 24.6814Q43.41 24.6042 43.3439 24.5237Q43.2778 24.4431 43.2158 24.3594Q43.1537 24.2758 43.0958 24.1891Q43.0379 24.1025 42.9844 24.0132Q42.9308 23.9238 42.8817 23.8319Q42.8326 23.74 42.7881 23.6459Q42.7435 23.5517 42.7036 23.4554Q42.6638 23.3592 42.6287 23.2611Q42.5936 23.163 42.5633 23.0633Q42.5331 22.9636 42.5078 22.8626Q42.4825 22.7615 42.4621 22.6593Q42.4418 22.5572 42.4265 22.4541Q42.4113 22.3511 42.401 22.2474Q42.3908 22.1437 42.3857 22.0396Q42.3806 21.9356 42.3806 21.8314L42.3806 21.8294Q42.3806 21.7252 42.3857 21.6212Q42.3908 21.5171 42.401 21.4134Q42.4113 21.3098 42.4265 21.2067Q42.4418 21.1037 42.4621 21.0015Q42.4825 20.8993 42.5078 20.7983Q42.5331 20.6972 42.5633 20.5975Q42.5936 20.4978 42.6287 20.3997Q42.6638 20.3016 42.7036 20.2054Q42.7435 20.1091 42.788 20.015Q42.8326 19.9208 42.8817 19.8289Q42.9308 19.737 42.9844 19.6477Q43.0379 19.5583 43.0958 19.4717Q43.1537 19.3851 43.2158 19.3014Q43.2778 19.2177 43.3439 19.1372Q43.41 19.0566 43.48 18.9794Q43.5499 18.9023 43.6236 18.8286Q43.6973 18.7549 43.7744 18.685Q43.8516 18.615 43.9322 18.5489Q44.0127 18.4828 44.0964 18.4208Q44.1801 18.3587 44.2667 18.3008Q44.3533 18.2429 44.4426 18.1894Q44.532 18.1358 44.6239 18.0867Q44.7158 18.0376 44.8099 17.9931Q44.9041 17.9485 45.0004 17.9086Q45.0966 17.8688 45.1947 17.8337Q45.2928 17.7986 45.3925 17.7683Q45.4922 17.7381 45.5932 17.7128Q45.6943 17.6875 45.7965 17.6672Q45.8987 17.6468 46.0017 17.6315Q46.1048 17.6163 46.2084 17.606Q46.3121 17.5958 46.4162 17.5907Q46.5202 17.5856 46.6244 17.5856Z" id="Rectangle-7-Copy-2" fill="#D3D3D3" fill-rule="evenodd" stroke="none" />
      <path d="M68.1741 7.27681L68.1761 7.27681Q68.3101 7.27681 68.4435 7.28995Q68.5768 7.30308 68.7082 7.32923Q68.8397 7.35537 68.9679 7.39427Q69.0962 7.43317 69.22 7.48445Q69.3438 7.53574 69.462 7.59891Q69.5801 7.66208 69.6916 7.73653Q69.803 7.81098 69.9066 7.89599Q70.0102 7.98101 70.1049 8.07576Q70.1997 8.17052 70.2847 8.27411Q70.3697 8.3777 70.4442 8.48913Q70.5186 8.60055 70.5818 8.71874Q70.6449 8.83692 70.6962 8.96073Q70.7475 9.08453 70.7864 9.21277Q70.8253 9.34101 70.8515 9.47244Q70.8776 9.60388 70.8907 9.73724Q70.9039 9.8706 70.9039 10.0046L70.9039 10.0066Q70.9039 10.1406 70.8907 10.274Q70.8776 10.4073 70.8515 10.5388Q70.8253 10.6702 70.7864 10.7984Q70.7475 10.9267 70.6962 11.0505Q70.6449 11.1743 70.5818 11.2925Q70.5186 11.4107 70.4442 11.5221Q70.3697 11.6335 70.2847 11.7371Q70.1997 11.8407 70.1049 11.9355Q70.0102 12.0302 69.9066 12.1152Q69.803 12.2002 69.6916 12.2747Q69.5801 12.3491 69.462 12.4123Q69.3438 12.4755 69.22 12.5268Q69.0962 12.5781 68.9679 12.617Q68.8397 12.6559 68.7082 12.682Q68.5768 12.7081 68.4435 12.7213Q68.3101 12.7344 68.1761 12.7344L68.1741 12.7344Q68.0401 12.7344 67.9067 12.7213Q67.7733 12.7081 67.6419 12.682Q67.5105 12.6559 67.3822 12.617Q67.254 12.5781 67.1302 12.5268Q67.0064 12.4755 66.8882 12.4123Q66.77 12.3491 66.6586 12.2747Q66.5472 12.2002 66.4436 12.1152Q66.34 12.0302 66.2452 11.9355Q66.1505 11.8407 66.0654 11.7371Q65.9804 11.6335 65.906 11.5221Q65.8315 11.4107 65.7684 11.2925Q65.7052 11.1743 65.6539 11.0505Q65.6026 10.9267 65.5637 10.7984Q65.5248 10.6702 65.4987 10.5388Q65.4725 10.4073 65.4594 10.274Q65.4463 10.1406 65.4463 10.0066L65.4463 10.0046Q65.4463 9.8706 65.4594 9.73724Q65.4725 9.60388 65.4987 9.47244Q65.5248 9.34101 65.5637 9.21277Q65.6026 9.08453 65.6539 8.96073Q65.7052 8.83692 65.7684 8.71873Q65.8315 8.60055 65.906 8.48913Q65.9804 8.3777 66.0654 8.27411Q66.1505 8.17052 66.2452 8.07577Q66.34 7.98101 66.4436 7.89599Q66.5472 7.81098 66.6586 7.73653Q66.77 7.66208 66.8882 7.59891Q67.0064 7.53574 67.1302 7.48445Q67.254 7.43317 67.3822 7.39427Q67.5105 7.35537 67.6419 7.32923Q67.7733 7.30308 67.9067 7.28995Q68.0401 7.27681 68.1741 7.27681Z" id="Rectangle-7-Copy" fill="#D3D3D3" fill-rule="evenodd" stroke="none" />
    </g>
    <g id="iPhone-Copy-2" transform="matrix(0.9396926 0.34202012 -0.34202012 0.9396926 233.2064 3.8146973E-05)">
      <g id="Rectangle-2">
        <use stroke="none" fill="#FFFFFF" xlink:href="#path_4" fill-rule="evenodd" />
        <g clip-path="url(#clip_4)">
          <use xlink:href="#path_4" fill="none" stroke="#EEEEEE" stroke-width="10" />
        </g>
      </g>
      <g id="Rectangle-3">
        <use stroke="none" fill="#FFFFFF" xlink:href="#path_2" fill-rule="evenodd" />
        <g clip-path="url(#clip_2)">
          <use xlink:href="#path_2" fill="none" stroke="#DCDCDC" stroke-width="2" />
        </g>
      </g>
      <g id="Rectangle-5">
        <use stroke="none" fill="#FFFFFF" xlink:href="#path_5" fill-rule="evenodd" />
        <g clip-path="url(#clip_5)">
          <use xlink:href="#path_5" fill="none" stroke="#DCDCDC" stroke-width="4" />
        </g>
      </g>
      <path d="M58.7974 19.4048L91.545 19.4048Q91.6641 19.4048 91.7826 19.4165Q91.9012 19.4281 92.018 19.4514Q92.1348 19.4746 92.2488 19.5092Q92.3628 19.5438 92.4728 19.5893Q92.5829 19.6349 92.6879 19.6911Q92.793 19.7472 92.892 19.8134Q92.9911 19.8796 93.0831 19.9551Q93.1752 20.0307 93.2594 20.1149Q93.3437 20.1992 93.4192 20.2912Q93.4948 20.3833 93.561 20.4824Q93.6271 20.5814 93.6833 20.6864Q93.7394 20.7915 93.785 20.9015Q93.8306 21.0116 93.8652 21.1256Q93.8998 21.2395 93.923 21.3564Q93.9462 21.4732 93.9579 21.5917Q93.9696 21.7103 93.9696 21.8294L93.9696 21.8314Q93.9696 21.9505 93.9579 22.069Q93.9462 22.1876 93.923 22.3044Q93.8998 22.4212 93.8652 22.5352Q93.8306 22.6492 93.785 22.7592Q93.7394 22.8693 93.6833 22.9743Q93.6271 23.0794 93.561 23.1784Q93.4948 23.2775 93.4192 23.3695Q93.3437 23.4616 93.2594 23.5458Q93.1752 23.6301 93.0831 23.7056Q92.9911 23.7812 92.892 23.8474Q92.793 23.9135 92.6879 23.9697Q92.5829 24.0258 92.4728 24.0714Q92.3628 24.117 92.2488 24.1516Q92.1348 24.1862 92.018 24.2094Q91.9012 24.2326 91.7826 24.2443Q91.6641 24.256 91.545 24.256L58.7974 24.256Q58.6783 24.256 58.5597 24.2443Q58.4412 24.2326 58.3244 24.2094Q58.2075 24.1862 58.0936 24.1516Q57.9796 24.117 57.8695 24.0714Q57.7595 24.0258 57.6544 23.9697Q57.5494 23.9135 57.4503 23.8474Q57.3513 23.7812 57.2592 23.7056Q57.1672 23.6301 57.0829 23.5458Q56.9987 23.4616 56.9231 23.3695Q56.8476 23.2775 56.7814 23.1784Q56.7152 23.0794 56.6591 22.9743Q56.6029 22.8693 56.5573 22.7592Q56.5118 22.6492 56.4772 22.5352Q56.4426 22.4212 56.4194 22.3044Q56.3961 22.1876 56.3845 22.069Q56.3728 21.9505 56.3728 21.8314L56.3728 21.8294Q56.3728 21.7103 56.3845 21.5917Q56.3961 21.4732 56.4194 21.3564Q56.4426 21.2395 56.4772 21.1256Q56.5118 21.0116 56.5573 20.9015Q56.6029 20.7915 56.6591 20.6864Q56.7152 20.5814 56.7814 20.4824Q56.8476 20.3833 56.9231 20.2912Q56.9987 20.1992 57.0829 20.1149Q57.1672 20.0307 57.2592 19.9551Q57.3513 19.8796 57.4503 19.8134Q57.5494 19.7472 57.6544 19.6911Q57.7595 19.6349 57.8695 19.5893Q57.9796 19.5438 58.0936 19.5092Q58.2075 19.4746 58.3244 19.4514Q58.4412 19.4281 58.5597 19.4165Q58.6783 19.4048 58.7974 19.4048Z" id="Rectangle-7" fill="#D3D3D3" fill-rule="evenodd" stroke="none" />
      <path d="M46.6244 17.5856L46.6264 17.5856Q46.7306 17.5856 46.8346 17.5907Q46.9387 17.5958 47.0424 17.606Q47.146 17.6162 47.2491 17.6315Q47.3522 17.6468 47.4543 17.6671Q47.5565 17.6875 47.6576 17.7128Q47.7586 17.7381 47.8583 17.7683Q47.958 17.7986 48.0561 17.8337Q48.1542 17.8688 48.2504 17.9086Q48.3467 17.9485 48.4409 17.9931Q48.535 18.0376 48.6269 18.0867Q48.7188 18.1358 48.8082 18.1894Q48.8975 18.2429 48.9841 18.3008Q49.0708 18.3587 49.1544 18.4207Q49.2381 18.4828 49.3186 18.5489Q49.3992 18.615 49.4764 18.685Q49.5536 18.7549 49.6272 18.8286Q49.7009 18.9022 49.7709 18.9794Q49.8408 19.0566 49.9069 19.1372Q49.973 19.2177 50.0351 19.3014Q50.0971 19.385 50.155 19.4717Q50.2129 19.5583 50.2664 19.6477Q50.32 19.737 50.3691 19.8289Q50.4182 19.9208 50.4628 20.0149Q50.5073 20.1091 50.5472 20.2054Q50.587 20.3016 50.6221 20.3997Q50.6572 20.4978 50.6875 20.5975Q50.7177 20.6972 50.743 20.7982Q50.7683 20.8993 50.7887 21.0015Q50.809 21.1037 50.8243 21.2067Q50.8396 21.3098 50.8498 21.4134Q50.86 21.5171 50.8651 21.6212Q50.8702 21.7252 50.8702 21.8294L50.8702 21.8314Q50.8702 21.9356 50.8651 22.0396Q50.86 22.1437 50.8498 22.2474Q50.8396 22.351 50.8243 22.4541Q50.809 22.5571 50.7887 22.6593Q50.7683 22.7615 50.743 22.8626Q50.7177 22.9636 50.6875 23.0633Q50.6572 23.163 50.6221 23.2611Q50.587 23.3592 50.5472 23.4554Q50.5073 23.5517 50.4628 23.6459Q50.4182 23.74 50.3691 23.8319Q50.32 23.9238 50.2664 24.0131Q50.2129 24.1025 50.155 24.1891Q50.0971 24.2758 50.0351 24.3594Q49.973 24.4431 49.9069 24.5236Q49.8408 24.6042 49.7709 24.6814Q49.7009 24.7586 49.6272 24.8322Q49.5536 24.9059 49.4764 24.9758Q49.3992 25.0458 49.3186 25.1119Q49.2381 25.178 49.1544 25.24Q49.0708 25.3021 48.9841 25.36Q48.8975 25.4179 48.8082 25.4714Q48.7188 25.525 48.6269 25.5741Q48.535 25.6232 48.4409 25.6677Q48.3467 25.7123 48.2504 25.7522Q48.1542 25.792 48.0561 25.8271Q47.958 25.8622 47.8583 25.8925Q47.7586 25.9227 47.6576 25.948Q47.5565 25.9733 47.4543 25.9937Q47.3522 26.014 47.2491 26.0293Q47.1461 26.0446 47.0424 26.0548Q46.9387 26.065 46.8346 26.0701Q46.7306 26.0752 46.6264 26.0752L46.6244 26.0752Q46.5202 26.0752 46.4162 26.0701Q46.3121 26.065 46.2084 26.0548Q46.1048 26.0446 46.0017 26.0293Q45.8987 26.014 45.7965 25.9937Q45.6943 25.9733 45.5933 25.948Q45.4922 25.9227 45.3925 25.8925Q45.2928 25.8622 45.1947 25.8271Q45.0966 25.792 45.0004 25.7522Q44.9041 25.7123 44.8099 25.6677Q44.7158 25.6232 44.6239 25.5741Q44.532 25.525 44.4427 25.4714Q44.3533 25.4179 44.2667 25.36Q44.1801 25.3021 44.0964 25.2401Q44.0127 25.178 43.9322 25.1119Q43.8516 25.0458 43.7744 24.9758Q43.6973 24.9059 43.6236 24.8322Q43.5499 24.7586 43.48 24.6814Q43.41 24.6042 43.3439 24.5236Q43.2778 24.4431 43.2158 24.3594Q43.1537 24.2758 43.0958 24.1891Q43.0379 24.1025 42.9844 24.0132Q42.9308 23.9238 42.8817 23.8319Q42.8326 23.74 42.7881 23.6459Q42.7435 23.5517 42.7036 23.4554Q42.6638 23.3592 42.6287 23.2611Q42.5936 23.163 42.5633 23.0633Q42.5331 22.9636 42.5078 22.8626Q42.4825 22.7615 42.4622 22.6593Q42.4418 22.5571 42.4265 22.4541Q42.4113 22.351 42.401 22.2474Q42.3908 22.1437 42.3857 22.0396Q42.3806 21.9356 42.3806 21.8314L42.3806 21.8294Q42.3806 21.7252 42.3857 21.6212Q42.3908 21.5171 42.401 21.4134Q42.4113 21.3098 42.4265 21.2067Q42.4418 21.1037 42.4621 21.0015Q42.4825 20.8993 42.5078 20.7982Q42.5331 20.6972 42.5633 20.5975Q42.5936 20.4978 42.6287 20.3997Q42.6638 20.3016 42.7036 20.2054Q42.7435 20.1091 42.7881 20.0149Q42.8326 19.9208 42.8817 19.8289Q42.9308 19.737 42.9844 19.6477Q43.0379 19.5583 43.0958 19.4717Q43.1537 19.385 43.2158 19.3014Q43.2778 19.2177 43.3439 19.1372Q43.41 19.0566 43.48 18.9794Q43.5499 18.9022 43.6236 18.8286Q43.6973 18.7549 43.7744 18.685Q43.8516 18.615 43.9322 18.5489Q44.0127 18.4828 44.0964 18.4207Q44.1801 18.3587 44.2667 18.3008Q44.3533 18.2429 44.4427 18.1894Q44.532 18.1358 44.6239 18.0867Q44.7158 18.0376 44.8099 17.9931Q44.9041 17.9485 45.0004 17.9086Q45.0966 17.8688 45.1947 17.8337Q45.2928 17.7986 45.3925 17.7683Q45.4922 17.7381 45.5932 17.7128Q45.6943 17.6875 45.7965 17.6671Q45.8987 17.6468 46.0017 17.6315Q46.1048 17.6162 46.2084 17.606Q46.3121 17.5958 46.4162 17.5907Q46.5202 17.5856 46.6244 17.5856Z" id="Rectangle-7-Copy-2" fill="#D3D3D3" fill-rule="evenodd" stroke="none" />
      <path d="M68.1741 7.2768L68.1761 7.2768Q68.3101 7.2768 68.4435 7.28994Q68.5768 7.30307 68.7082 7.32922Q68.8397 7.35536 68.9679 7.39426Q69.0962 7.43316 69.22 7.48444Q69.3438 7.53573 69.462 7.5989Q69.5801 7.66207 69.6916 7.73652Q69.803 7.81097 69.9066 7.89599Q70.0102 7.981 70.1049 8.07576Q70.1997 8.17052 70.2847 8.27411Q70.3697 8.3777 70.4442 8.48912Q70.5186 8.60054 70.5818 8.71873Q70.645 8.83691 70.6962 8.96072Q70.7475 9.08453 70.7864 9.21277Q70.8253 9.341 70.8515 9.47244Q70.8776 9.60387 70.8907 9.73723Q70.9039 9.8706 70.9039 10.0046L70.9039 10.0066Q70.9039 10.1406 70.8907 10.274Q70.8776 10.4073 70.8515 10.5388Q70.8253 10.6702 70.7864 10.7984Q70.7475 10.9267 70.6962 11.0505Q70.645 11.1743 70.5818 11.2925Q70.5186 11.4107 70.4442 11.5221Q70.3697 11.6335 70.2847 11.7371Q70.1997 11.8407 70.1049 11.9354Q70.0102 12.0302 69.9066 12.1152Q69.803 12.2002 69.6916 12.2747Q69.5801 12.3491 69.462 12.4123Q69.3438 12.4755 69.22 12.5268Q69.0962 12.578 68.9679 12.6169Q68.8397 12.6558 68.7082 12.682Q68.5768 12.7081 68.4435 12.7213Q68.3101 12.7344 68.1761 12.7344L68.1741 12.7344Q68.0401 12.7344 67.9067 12.7213Q67.7733 12.7081 67.6419 12.682Q67.5105 12.6558 67.3822 12.6169Q67.254 12.578 67.1302 12.5268Q67.0064 12.4755 66.8882 12.4123Q66.77 12.3491 66.6586 12.2747Q66.5472 12.2002 66.4436 12.1152Q66.34 12.0302 66.2452 11.9354Q66.1505 11.8407 66.0655 11.7371Q65.9804 11.6335 65.906 11.5221Q65.8315 11.4107 65.7684 11.2925Q65.7052 11.1743 65.6539 11.0505Q65.6026 10.9267 65.5637 10.7984Q65.5248 10.6702 65.4987 10.5388Q65.4725 10.4073 65.4594 10.274Q65.4463 10.1406 65.4463 10.0066L65.4463 10.0046Q65.4463 9.8706 65.4594 9.73723Q65.4725 9.60387 65.4987 9.47244Q65.5248 9.341 65.5637 9.21277Q65.6026 9.08453 65.6539 8.96072Q65.7052 8.83691 65.7684 8.71873Q65.8315 8.60054 65.906 8.48912Q65.9804 8.3777 66.0655 8.27411Q66.1505 8.17052 66.2452 8.07576Q66.34 7.981 66.4436 7.89599Q66.5472 7.81097 66.6586 7.73652Q66.77 7.66207 66.8882 7.5989Q67.0064 7.53573 67.1302 7.48444Q67.254 7.43316 67.3822 7.39426Q67.5105 7.35536 67.6419 7.32922Q67.7733 7.30307 67.9067 7.28994Q68.0401 7.2768 68.1741 7.2768Z" id="Rectangle-7-Copy" fill="#D3D3D3" fill-rule="evenodd" stroke="none" />
    </g>
    <g id="iPhone" transform="translate(112.74832 14.777855)">
      <g id="Rectangle-2">
        <use stroke="none" fill="#FFFFFF" xlink:href="#path_6" fill-rule="evenodd" />
        <g clip-path="url(#clip_6)">
          <use xlink:href="#path_6" fill="none" stroke="#EEEEEE" stroke-width="10" />
        </g>
      </g>
      <g id="Rectangle-3">
        <use stroke="none" fill="#FFFFFF" xlink:href="#path_7" fill-rule="evenodd" />
        <g clip-path="url(#clip_7)">
          <use xlink:href="#path_7" fill="none" stroke="#DCDCDC" stroke-width="2" />
        </g>
      </g>
      <g id="Rectangle-5">
        <use stroke="none" fill="#FFFFFF" xlink:href="#path_8" fill-rule="evenodd" />
        <g clip-path="url(#clip_8)">
          <use xlink:href="#path_8" fill="none" stroke="#DCDCDC" stroke-width="4" />
        </g>
      </g>
      <path d="M58.7965 19.4045L91.5436 19.4045Q91.6627 19.4045 91.7812 19.4162Q91.8998 19.4279 92.0166 19.4511Q92.1334 19.4743 92.2474 19.5089Q92.3614 19.5435 92.4714 19.5891Q92.5815 19.6347 92.6865 19.6908Q92.7916 19.747 92.8906 19.8131Q92.9896 19.8793 93.0817 19.9549Q93.1738 20.0304 93.258 20.1147Q93.3422 20.1989 93.4178 20.2909Q93.4934 20.383 93.5595 20.4821Q93.6257 20.5811 93.6818 20.6861Q93.738 20.7912 93.7836 20.9012Q93.8292 21.0113 93.8637 21.1253Q93.8983 21.2392 93.9216 21.3561Q93.9448 21.4729 93.9565 21.5914Q93.9682 21.71 93.9681 21.8291L93.9681 21.8311Q93.9682 21.9502 93.9565 22.0687Q93.9448 22.1873 93.9216 22.3041Q93.8983 22.4209 93.8638 22.5349Q93.8292 22.6489 93.7836 22.7589Q93.738 22.869 93.6818 22.974Q93.6257 23.0791 93.5595 23.1781Q93.4934 23.2771 93.4178 23.3692Q93.3422 23.4613 93.258 23.5455Q93.1738 23.6297 93.0817 23.7053Q92.9896 23.7809 92.8906 23.847Q92.7915 23.9132 92.6865 23.9694Q92.5815 24.0255 92.4714 24.0711Q92.3614 24.1167 92.2474 24.1512Q92.1334 24.1858 92.0166 24.2091Q91.8998 24.2323 91.7812 24.244Q91.6627 24.2556 91.5436 24.2556L58.7965 24.2556Q58.6774 24.2556 58.5588 24.244Q58.4403 24.2323 58.3235 24.2091Q58.2066 24.1858 58.0927 24.1512Q57.9787 24.1167 57.8686 24.0711Q57.7586 24.0255 57.6535 23.9694Q57.5485 23.9132 57.4494 23.847Q57.3504 23.7809 57.2583 23.7053Q57.1663 23.6297 57.082 23.5455Q56.9978 23.4613 56.9223 23.3692Q56.8467 23.2771 56.7805 23.1781Q56.7143 23.0791 56.6582 22.974Q56.602 22.869 56.5565 22.7589Q56.5109 22.6489 56.4763 22.5349Q56.4417 22.4209 56.4185 22.3041Q56.3953 22.1873 56.3836 22.0687Q56.3719 21.9502 56.3719 21.8311L56.3719 21.8291Q56.3719 21.71 56.3836 21.5914Q56.3953 21.4729 56.4185 21.3561Q56.4417 21.2392 56.4763 21.1253Q56.5109 21.0113 56.5565 20.9012Q56.602 20.7912 56.6582 20.6861Q56.7143 20.5811 56.7805 20.4821Q56.8467 20.383 56.9222 20.2909Q56.9978 20.1989 57.082 20.1147Q57.1663 20.0304 57.2583 19.9549Q57.3504 19.8793 57.4494 19.8131Q57.5485 19.747 57.6535 19.6908Q57.7586 19.6347 57.8686 19.5891Q57.9787 19.5435 58.0927 19.5089Q58.2066 19.4743 58.3235 19.4511Q58.4403 19.4279 58.5588 19.4162Q58.6774 19.4045 58.7965 19.4045Z" id="Rectangle-7" fill="#D3D3D3" fill-rule="evenodd" stroke="none" />
      <path d="M46.6237 17.5853L46.6257 17.5853Q46.7299 17.5853 46.8339 17.5905Q46.938 17.5956 47.0417 17.6058Q47.1454 17.616 47.2484 17.6313Q47.3515 17.6466 47.4536 17.6669Q47.5558 17.6872 47.6569 17.7125Q47.7579 17.7378 47.8576 17.7681Q47.9573 17.7983 48.0554 17.8334Q48.1535 17.8685 48.2497 17.9084Q48.346 17.9482 48.4401 17.9928Q48.5343 18.0373 48.6262 18.0864Q48.7181 18.1355 48.8074 18.1891Q48.8968 18.2427 48.9834 18.3005Q49.07 18.3584 49.1537 18.4205Q49.2374 18.4825 49.3179 18.5486Q49.3984 18.6147 49.4756 18.6847Q49.5528 18.7546 49.6265 18.8283Q49.7001 18.902 49.7701 18.9792Q49.8401 19.0563 49.9062 19.1369Q49.9723 19.2174 50.0343 19.3011Q50.0964 19.3848 50.1543 19.4714Q50.2121 19.558 50.2657 19.6474Q50.3192 19.7367 50.3684 19.8286Q50.4175 19.9205 50.462 20.0146Q50.5065 20.1088 50.5464 20.2051Q50.5863 20.3013 50.6214 20.3994Q50.6565 20.4975 50.6867 20.5972Q50.717 20.6969 50.7423 20.7979Q50.7676 20.899 50.7879 21.0012Q50.8082 21.1033 50.8235 21.2064Q50.8388 21.3094 50.849 21.4131Q50.8592 21.5168 50.8643 21.6208Q50.8695 21.7249 50.8695 21.8291L50.8695 21.8311Q50.8695 21.9353 50.8643 22.0393Q50.8592 22.1434 50.849 22.247Q50.8388 22.3507 50.8235 22.4538Q50.8082 22.5568 50.7879 22.659Q50.7676 22.7612 50.7423 22.8622Q50.717 22.9633 50.6867 23.063Q50.6565 23.1627 50.6214 23.2607Q50.5863 23.3588 50.5464 23.4551Q50.5065 23.5513 50.462 23.6455Q50.4175 23.7397 50.3684 23.8316Q50.3192 23.9234 50.2657 24.0128Q50.2121 24.1021 50.1543 24.1888Q50.0964 24.2754 50.0343 24.3591Q49.9723 24.4427 49.9062 24.5233Q49.8401 24.6038 49.7701 24.681Q49.7001 24.7582 49.6265 24.8319Q49.5528 24.9055 49.4756 24.9755Q49.3984 25.0454 49.3179 25.1115Q49.2374 25.1776 49.1537 25.2397Q49.07 25.3017 48.9834 25.3596Q48.8968 25.4175 48.8074 25.471Q48.7181 25.5246 48.6262 25.5737Q48.5343 25.6228 48.4401 25.6674Q48.346 25.7119 48.2497 25.7518Q48.1535 25.7916 48.0554 25.8267Q47.9573 25.8618 47.8576 25.8921Q47.7579 25.9223 47.6569 25.9476Q47.5558 25.9729 47.4536 25.9933Q47.3514 26.0136 47.2484 26.0289Q47.1454 26.0442 47.0417 26.0544Q46.938 26.0646 46.8339 26.0697Q46.7299 26.0748 46.6257 26.0748L46.6237 26.0748Q46.5195 26.0748 46.4155 26.0697Q46.3114 26.0646 46.2078 26.0544Q46.1041 26.0442 46.001 26.0289Q45.898 26.0136 45.7958 25.9933Q45.6936 25.9729 45.5926 25.9476Q45.4915 25.9223 45.3918 25.8921Q45.2921 25.8618 45.194 25.8267Q45.096 25.7916 44.9997 25.7518Q44.9035 25.7119 44.8093 25.6674Q44.7151 25.6228 44.6232 25.5737Q44.5314 25.5246 44.442 25.471Q44.3526 25.4175 44.266 25.3596Q44.1794 25.3017 44.0957 25.2397Q44.012 25.1776 43.9315 25.1115Q43.851 25.0454 43.7738 24.9755Q43.6966 24.9055 43.6229 24.8319Q43.5493 24.7582 43.4793 24.681Q43.4093 24.6038 43.3433 24.5233Q43.2772 24.4427 43.2151 24.3591Q43.153 24.2754 43.0952 24.1888Q43.0373 24.1021 42.9837 24.0128Q42.9302 23.9234 42.8811 23.8316Q42.832 23.7397 42.7874 23.6455Q42.7429 23.5513 42.703 23.4551Q42.6631 23.3588 42.628 23.2607Q42.5929 23.1627 42.5627 23.063Q42.5325 22.9633 42.5072 22.8622Q42.4818 22.7612 42.4615 22.659Q42.4412 22.5568 42.4259 22.4538Q42.4106 22.3507 42.4004 22.247Q42.3902 22.1434 42.3851 22.0393Q42.38 21.9353 42.38 21.8311L42.38 21.8291Q42.38 21.7249 42.3851 21.6208Q42.3902 21.5168 42.4004 21.4131Q42.4106 21.3094 42.4259 21.2064Q42.4412 21.1033 42.4615 21.0012Q42.4818 20.899 42.5072 20.7979Q42.5325 20.6969 42.5627 20.5972Q42.5929 20.4975 42.628 20.3994Q42.6631 20.3013 42.703 20.2051Q42.7429 20.1088 42.7874 20.0146Q42.832 19.9205 42.8811 19.8286Q42.9302 19.7367 42.9837 19.6474Q43.0373 19.558 43.0952 19.4714Q43.153 19.3848 43.2151 19.3011Q43.2772 19.2174 43.3433 19.1369Q43.4093 19.0563 43.4793 18.9792Q43.5493 18.902 43.6229 18.8283Q43.6966 18.7546 43.7738 18.6847Q43.851 18.6147 43.9315 18.5486Q44.012 18.4825 44.0957 18.4205Q44.1794 18.3584 44.266 18.3005Q44.3526 18.2427 44.442 18.1891Q44.5313 18.1355 44.6232 18.0864Q44.7151 18.0373 44.8093 17.9928Q44.9035 17.9482 44.9997 17.9084Q45.096 17.8685 45.194 17.8334Q45.2921 17.7983 45.3918 17.7681Q45.4915 17.7378 45.5926 17.7125Q45.6936 17.6872 45.7958 17.6669Q45.898 17.6466 46.001 17.6313Q46.1041 17.616 46.2078 17.6058Q46.3114 17.5956 46.4155 17.5905Q46.5195 17.5853 46.6237 17.5853Z" id="Rectangle-7-Copy-2" fill="#D3D3D3" fill-rule="evenodd" stroke="none" />
      <path d="M68.1731 7.27669L68.1751 7.27669Q68.3091 7.27669 68.4424 7.28983Q68.5758 7.30296 68.7072 7.32911Q68.8387 7.35525 68.9669 7.39415Q69.0951 7.43305 69.2189 7.48433Q69.3427 7.53561 69.4609 7.59878Q69.5791 7.66195 69.6905 7.7364Q69.8019 7.81085 69.9055 7.89587Q70.0091 7.98088 70.1039 8.07563Q70.1986 8.17039 70.2837 8.27398Q70.3687 8.37757 70.4431 8.48899Q70.5176 8.60041 70.5807 8.71859Q70.6439 8.83678 70.6952 8.96058Q70.7465 9.08439 70.7854 9.21263Q70.8243 9.34086 70.8504 9.47229Q70.8766 9.60372 70.8897 9.73709Q70.9028 9.87045 70.9028 10.0045L70.9028 10.0065Q70.9028 10.1405 70.8897 10.2738Q70.8766 10.4072 70.8504 10.5386Q70.8243 10.67 70.7854 10.7983Q70.7465 10.9265 70.6952 11.0503Q70.6439 11.1741 70.5807 11.2923Q70.5176 11.4105 70.4431 11.5219Q70.3687 11.6333 70.2837 11.7369Q70.1986 11.8405 70.1039 11.9353Q70.0091 12.03 69.9055 12.115Q69.8019 12.2001 69.6905 12.2745Q69.5791 12.349 69.4609 12.4121Q69.3427 12.4753 69.2189 12.5266Q69.0951 12.5779 68.9669 12.6168Q68.8387 12.6557 68.7072 12.6818Q68.5758 12.7079 68.4424 12.7211Q68.3091 12.7342 68.1751 12.7342L68.1731 12.7342Q68.0391 12.7342 67.9057 12.7211Q67.7723 12.7079 67.6409 12.6818Q67.5095 12.6557 67.3812 12.6168Q67.253 12.5779 67.1292 12.5266Q67.0054 12.4753 66.8872 12.4121Q66.769 12.349 66.6576 12.2745Q66.5462 12.2001 66.4426 12.115Q66.339 12.03 66.2442 11.9353Q66.1495 11.8405 66.0645 11.7369Q65.9795 11.6333 65.905 11.5219Q65.8306 11.4105 65.7674 11.2923Q65.7042 11.1741 65.6529 11.0503Q65.6017 10.9265 65.5628 10.7983Q65.5239 10.67 65.4977 10.5386Q65.4716 10.4072 65.4584 10.2738Q65.4453 10.1405 65.4453 10.0065L65.4453 10.0045Q65.4453 9.87045 65.4584 9.73709Q65.4716 9.60372 65.4977 9.47229Q65.5239 9.34086 65.5628 9.21263Q65.6017 9.08439 65.6529 8.96058Q65.7042 8.83678 65.7674 8.71859Q65.8306 8.60041 65.905 8.48899Q65.9795 8.37757 66.0645 8.27398Q66.1495 8.17039 66.2442 8.07563Q66.339 7.98088 66.4426 7.89587Q66.5462 7.81085 66.6576 7.7364Q66.769 7.66195 66.8872 7.59878Q67.0054 7.53561 67.1292 7.48433Q67.253 7.43305 67.3812 7.39415Q67.5095 7.35525 67.6409 7.32911Q67.7723 7.30296 67.9057 7.28983Q68.0391 7.27669 68.1731 7.27669Z" id="Rectangle-7-Copy" fill="#D3D3D3" fill-rule="evenodd" stroke="none" />
    </g>
  </g>
</svg>